<?xml version="1.0" standalone="no"?>
<!DOCTYPE svg PUBLIC "-//W3C//DTD SVG 1.1//EN" "http://www.w3.org/Graphics/SVG/1.1/DTD/svg11.dtd">
<svg width="100%" height="100%" viewBox="0 0 417 417" version="1.1" xmlns="http://www.w3.org/2000/svg" xmlns:xlink="http://www.w3.org/1999/xlink" xml:space="preserve" style="fill-rule:evenodd;clip-rule:evenodd;stroke-linejoin:round;stroke-miterlimit:1.41421;">
    <g id="Layer7">
        <path d="M416.667,62.5C416.667,28.005 388.661,0 354.167,0L62.5,0C28.005,0 0,28.005 0,62.5L0,354.167C0,388.661 28.005,416.667 62.5,416.667L354.167,416.667C388.661,416.667 416.667,388.661 416.667,354.167L416.667,62.5Z" style="fill:rgb(248,164,52);"/>
    </g>
    <g id="Layer8">
        <g transform="matrix(0.869115,0,0,1.03479,28.1795,22.4169)">
            <g transform="matrix(1.16887,0,0,1.16887,-118.108,-1.00655)">
                <circle cx="158.414" cy="137.394" r="49.92" style="fill:white;"/>
            </g>
            <g transform="matrix(1.19576,0,0,1.12513,-48.7098,-40.8446)">
                <circle cx="158.414" cy="137.394" r="49.92" style="fill:white;"/>
            </g>
            <g transform="matrix(1.91115,0,0,1.50753,-52.8104,-112.473)">
                <circle cx="158.414" cy="137.394" r="49.92" style="fill:white;"/>
            </g>
            <g transform="matrix(1.19671,0,0,1.16495,156.546,-0.663324)">
                <circle cx="158.414" cy="137.394" r="49.92" style="fill:white;"/>
            </g>
            <g transform="matrix(1.27692,0,0,2.13129,-64.3142,-198.712)">
                <rect x="102.881" y="150.604" width="217.937" height="44.705" style="fill:white;"/>
            </g>
        </g>
        <g transform="matrix(0.928428,0,0,0.928428,14.9107,31.4709)">
            <g transform="matrix(1.37629,0,0,1.86821,-78.3946,-292.277)">
                <path d="M225.451,251.238C230.124,251.238 234.58,252.686 237.731,255.227C240.882,257.769 242.436,261.169 242.013,264.597C239.335,286.322 234.109,328.714 231.855,346.999C231.245,351.949 225.611,355.739 218.865,355.739C212.354,355.739 204.313,355.739 197.802,355.739C191.055,355.739 185.422,351.949 184.812,346.999C182.558,328.714 177.331,286.322 174.653,264.597C174.231,261.169 175.785,257.769 178.936,255.227C182.086,252.686 186.543,251.238 191.215,251.238C201.737,251.238 214.93,251.238 225.451,251.238Z" style="fill:rgb(197,10,67);"/>
            </g>
            <g transform="matrix(0.592527,0,0,0.592527,88.8256,28.2204)">
                <circle cx="201.691" cy="154.212" r="69.145" style="fill:rgb(197,10,67);"/>
            </g>
        </g>
    </g>
</svg>
